# xmcd
#
# Track frame offsets: 
#        150
#        17870
#        47087
#        75455
#        98230
#
# Disc length: 1544 seconds
#
# Revision: 0
# Processed by: cddbd v1.5.2PL0 Copyright (c) Steve Scherf et al.
# Submitted via: ExactAudioCopy v0.99pb5
#
DISCID=32060605
DTITLE=Sound On Sound - Time To Feel
DYEAR=1992
DGENRE=House
TTITLE0=Time To Feel (Eric Kuppers Edit)
TTITLE1=Time To Feel (The Beatmasters 12" Mix)
TTITLE2=Time To Feel (Eric Kuppers 12" Mix)
TTITLE3=Time To Feel (Eric Kuppers Dub)
TTITLE4=Time To Feel (Eric Kuppers Instrumental)
EXTD=
EXTT0=
EXTT1=
EXTT2=
EXTT3=
EXTT4=
PLAYORDER=
